<svg id="Layer_1" data-name="Layer 1" xmlns="http://www.w3.org/2000/svg" viewBox="0 0 97.77 34.02"><defs><style>.cls-1{fill:#fff;}</style></defs><title>logocloudtk</title><path class="cls-1" d="M72.42,21h-10V33H57.72V21H48.37V18.6H72.42Z" transform="translate(-1.11 -10.6)"/><path class="cls-1" d="M98.55,31.82l-4,1.35q-4.68-3.86-4.93-4-3.83-3-5-3l-5.35,0V33h-4.6V18.52h4.6v5.33h10.9a6.51,6.51,0,0,0,1.45-.16c.7-.15,1.05-.35,1.05-.62V18.52H97.3v4.54c0,1.17-.83,2-2.48,2.51a26.24,26.24,0,0,1-3.92.6l0,0Q92.6,27.29,98.55,31.82Z" transform="translate(-1.11 -10.6)"/><path class="cls-1" d="M17.6,41.24a2.72,2.72,0,0,1-1.43,2.48l0,0a8,8,0,0,1-4.05.9H6.58A9.38,9.38,0,0,1,3.29,44c-1.42-.51-2.13-1.24-2.15-2.19l0-4.27q0-1.41,2.16-2.19a9.77,9.77,0,0,1,3.31-.58h5.55a9.9,9.9,0,0,1,3.31.58q2.16.78,2.16,2.19v.75H14.44a1.79,1.79,0,0,0-.6-1.53,2.94,2.94,0,0,0-1.68-.37H6.62a4.29,4.29,0,0,0-1.4.24c-.61.22-.91.53-.91.91l0,4.26c0,.39.31.7.92.91A3.93,3.93,0,0,0,6.58,43h5.55c1.55,0,2.32-.59,2.31-1.75Z" transform="translate(-1.11 -10.6)"/><path class="cls-1" d="M37.23,44.6H24.86a3.72,3.72,0,0,1-1.63-.46c-.73-.35-1.09-.73-1.09-1.15v-8.2l3.06,0,0,8.16h12Z" transform="translate(-1.11 -10.6)"/><path class="cls-1" d="M58.25,41.94c0,.74-.54,1.37-1.6,1.88h0a8.65,8.65,0,0,1-3.84.77H47.26A10.27,10.27,0,0,1,44,44.06c-1.45-.5-2.18-1.21-2.18-2.13V40.49c0-.91.73-1.61,2.18-2.11a9.84,9.84,0,0,1,3.26-.56h5.54a10.37,10.37,0,0,1,3.3.54c1.45.5,2.18,1.21,2.18,2.13Zm-3.17,0V40.52c0-.38-.3-.68-.9-.88a4.08,4.08,0,0,0-1.37-.24H47.23a4.18,4.18,0,0,0-1.38.24c-.6.2-.9.5-.9.88V42c0,.38.3.68.9.88a4.18,4.18,0,0,0,1.38.24h5.58a4.08,4.08,0,0,0,1.37-.24C54.78,42.63,55.08,42.33,55.08,42Z" transform="translate(-1.11 -10.6)"/><path class="cls-1" d="M78.54,42.35q0,2.24-4.62,2.23l-7.07,0a9.49,9.49,0,0,1-1.53-.12v.12H62.16V37.78h3.16l0,4.71c0,.33.54.5,1.6.5h7c1,0,1.56-.23,1.56-.68V37.78h3.06Z" transform="translate(-1.11 -10.6)"/><path class="cls-1" d="M98.88,43.24c0,.37-.46.71-1.38,1a6.18,6.18,0,0,1-1.85.38l-8.23,0a11.05,11.05,0,0,1-2.91-.37c-1.35-.36-2-.92-2-1.67V39.88q0-2.3,4.62-2.3h7a13.86,13.86,0,0,1,1.56.09V34.79h3.17ZM95.71,39.7c0-.33-.52-.5-1.56-.5h-7q-1.55,0-1.56.69l0,2.6c0,.34.62.51,1.84.51h8.33Q95.71,39.72,95.71,39.7Z" transform="translate(-1.11 -10.6)"/><path class="cls-1" d="M41.57,12.1a11,11,0,0,1,6.1,1.81.75.75,0,1,0,.9-1.2.24.24,0,0,0-.15-.08,12.46,12.46,0,0,0-6.92-2,11.93,11.93,0,0,0-11.06,6.92,10,10,0,0,0-2.94-.45c-5,0-9.1,3.84-9.1,8.5S22.61,34,27.58,34h2.86a.75.75,0,0,0,0-1.5H27.58c-4.21,0-7.6-3.09-7.6-7s3.39-7,7.6-7a8.74,8.74,0,0,1,3.08.6.81.81,0,0,0,.61,0,.72.72,0,0,0,.37-.45A10.37,10.37,0,0,1,41.57,12.1Z" transform="translate(-1.11 -10.6)"/><polygon class="cls-1" points="37.88 12.4 33.19 17.23 34.94 17.23 34.94 22.4 40.95 22.4 40.95 17.23 42.56 17.23 37.88 12.4"/></svg>