<svg id="Layer_1" data-name="Layer 1" xmlns="http://www.w3.org/2000/svg" viewBox="0 0 88.42 46.79"><defs><style>.cls-1{fill:#29c6ff;}.cls-2{fill:#fff;}.cls-3{fill:#f39a11;}.cls-4{fill:#006ebc;}</style></defs><title>logotkcloud</title><path class="cls-1" d="M62,52H53A30,30,0,0,1,26.66,36.37a13.11,13.11,0,0,0-1.06,2.24,11.77,11.77,0,0,0-4.46-.87C15,37.74,10,42.35,10,48s5,10.29,11.14,10.29H55.5v-.08A7.12,7.12,0,0,0,62,52Z" transform="translate(-9.38 -23.67)"/><path class="cls-2" d="M73.18,33.59l-.74,5.28H64.53L61.56,60H56.29l3-21.09H51.35l.74-5.28Z" transform="translate(-9.38 -23.67)"/><path class="cls-2" d="M76.7,33.59H82L80.48,44.14h3.64l7.57-10.55h6.1L88.32,46.78,94.08,60H88l-4.6-10.55H79.74L78.26,60H73Z" transform="translate(-9.38 -23.67)"/><path class="cls-3" d="M26,67.67H31.7l-.26,1.68H23.82L25.16,61h7.62l-.27,1.67H26.8Z" transform="translate(-9.38 -23.67)"/><path class="cls-3" d="M41.38,67.67h5.71l-.27,1.68H39.21L40.55,61h1.9Z" transform="translate(-9.38 -23.67)"/><path class="cls-3" d="M54.59,69.35,55.93,61h7.62l-1.34,8.37Zm2.17-1.68h3.81l.81-5H57.57Z" transform="translate(-9.38 -23.67)"/><path class="cls-3" d="M71.32,61h1.9l-1.07,6.69H76L77,61h1.91L77.6,69.35H70Z" transform="translate(-9.38 -23.67)"/><path class="cls-3" d="M94.32,61l-.93,5.83-8.2,3.65L86.71,61Zm-2.17,1.67H88.34l-.79,5,4.1-1.83Z" transform="translate(-9.38 -23.67)"/><path class="cls-4" d="M40.08,29.87a14.8,14.8,0,0,1,8.09,2.38,1,1,0,0,0,1.4-.15,1,1,0,0,0-.15-1.41l-.16-.1a16.51,16.51,0,0,0-9.18-2.72,15.87,15.87,0,0,0-14.7,9.18,12.89,12.89,0,0,0-3.89-.6c-6.67,0-12.11,5.07-12.11,11.26S14.82,59,21.51,59h3.8a1,1,0,1,0,0-2h-3.8c-5.58,0-10.13-4.13-10.13-9.29s4.55-9.3,10.13-9.3a11,11,0,0,1,4.09.79,1,1,0,0,0,.8,0,1,1,0,0,0,.53-.58A13.74,13.74,0,0,1,40.08,29.87Z" transform="translate(-9.38 -23.67)"/><polygon class="cls-4" points="28.63 20.38 21.93 27.21 24.39 27.21 24.39 34.66 33.06 34.66 33.06 27.21 35.33 27.21 28.63 20.38"/><path class="cls-4" d="M14.07,35.44h0a1,1,0,0,1-1-1,10.64,10.64,0,0,1,3.23-7.6A11,11,0,0,1,24,23.67h0a1,1,0,0,1,0,2,9,9,0,0,0-6.33,2.59A8.67,8.67,0,0,0,15,34.44,1,1,0,0,1,14.07,35.44Z" transform="translate(-9.38 -23.67)"/><path class="cls-4" d="M18,35.42a1,1,0,0,1-1-1,6.75,6.75,0,0,1,2.05-4.85,7,7,0,0,1,4.91-2h0a1,1,0,0,1,0,2h0A5,5,0,0,0,20.49,31,4.75,4.75,0,0,0,19,34.42,1,1,0,0,1,18,35.42Z" transform="translate(-9.38 -23.67)"/><ellipse class="cls-4" cx="23.28" cy="33.71" rx="1.98" ry="1.94" transform="translate(-15.99 -17.97) rotate(-12.24)"/></svg>